<?xml version="1.0" encoding="UTF-8" standalone="no"?>
<svg
   xmlns:dc="http://purl.org/dc/elements/1.1/"
   xmlns:cc="http://creativecommons.org/ns#"
   xmlns:rdf="http://www.w3.org/1999/02/22-rdf-syntax-ns#"
   xmlns:svg="http://www.w3.org/2000/svg"
   xmlns="http://www.w3.org/2000/svg"
   xmlns:sodipodi="http://sodipodi.sourceforge.net/DTD/sodipodi-0.dtd"
   xmlns:inkscape="http://www.inkscape.org/namespaces/inkscape"
   version="1.1"
   width="48"
   height="48"
   viewBox="0 0 48 47.999673"
   enable-background="new 0 0 1952.00 734.93"
   xml:space="preserve"
   id="svg2"
   inkscape:version="0.91 r13725"
   sodipodi:docname="pwa-inverse.svg"><metadata
     id="metadata16"><rdf:RDF><cc:Work
         rdf:about=""><dc:format>image/svg+xml</dc:format><dc:type
           rdf:resource="http://purl.org/dc/dcmitype/StillImage" /><dc:title></dc:title></cc:Work></rdf:RDF></metadata><defs
     id="defs14" /><sodipodi:namedview
     pagecolor="#ffffff"
     bordercolor="#666666"
     borderopacity="1"
     objecttolerance="10"
     gridtolerance="10"
     guidetolerance="10"
     inkscape:pageopacity="0"
     inkscape:pageshadow="2"
     inkscape:window-width="1920"
     inkscape:window-height="1017"
     id="namedview12"
     showgrid="false"
     inkscape:zoom="11.672131"
     inkscape:cx="16.926904"
     inkscape:cy="21.95143"
     inkscape:window-x="-8"
     inkscape:window-y="-8"
     inkscape:window-maximized="1"
     inkscape:current-layer="svg2" /><path
     style="opacity:1;fill:#3d3d3d;fill-opacity:1;fill-rule:nonzero;stroke:none;stroke-width:0;stroke-linejoin:miter;stroke-miterlimit:4;stroke-dasharray:none;stroke-opacity:0.6"
     d="m 0,-1.09e-4 0,48 48,0 0,-48 -48,0 z m 3,16.092774 6.5449218,0 c 1.8611032,0 3.2759942,0.536009 4.2421872,1.605468 0.184009,0.202464 0.345873,0.417267 0.489258,0.644532 l -1.880859,5.797851 -0.673828,2.074218 c -0.615885,0.176046 -1.317784,0.263673 -2.1064457,0.263673 l -2.6015625,0 0,5.42871 -4.0136718,0 0,-15.814452 z m 18.600587,0 3.249022,0 3.10254,10.21875 4.359375,-10.21875 4.227538,0 -6.375,15.814452 -4.171875,0 -2.868163,-9.164062 -3.00879,9.164062 -4.160156,0 -2.15918,-3.703125 2.126953,-6.547851 2.346681,4.655274 3.331054,-10.21875 z m 17.443358,0 L 45,31.907117 l -4.391601,0 -1.019532,-2.833008 -5.677734,0 1.212891,-3.067382 3.503905,0 -1.664062,-4.655273 2.080078,-5.258789 z m -32.0302732,3.070313 0,4.248046 1.5029298,0 c 0.9760264,0 1.6459234,-0.209001 2.0097654,-0.626953 0.33189,-0.376146 0.498047,-0.88764 0.498047,-1.529297 0,-0.636772 -0.188032,-1.143612 -0.56543,-1.523437 C 10.081609,19.35149 9.4379688,19.162978 8.5283204,19.162978 l -1.5146486,0 z"
     id="rect4136"
     inkscape:connector-curvature="0" /><g
     id="g4"
     transform="matrix(0.01434426,0,0,0.01434413,2.0000001,26.728885)"
     style="fill:#ffffff;fill-opacity:1" /></svg>