<?xml version="1.0" encoding="UTF-8" standalone="no"?>
<svg
   xmlns:dc="http://purl.org/dc/elements/1.1/"
   xmlns:cc="http://creativecommons.org/ns#"
   xmlns:rdf="http://www.w3.org/1999/02/22-rdf-syntax-ns#"
   xmlns:svg="http://www.w3.org/2000/svg"
   xmlns="http://www.w3.org/2000/svg"
   xmlns:sodipodi="http://sodipodi.sourceforge.net/DTD/sodipodi-0.dtd"
   xmlns:inkscape="http://www.inkscape.org/namespaces/inkscape"
   version="1.1"
   width="48"
   height="48"
   viewBox="0 0 48 47.999673"
   enable-background="new 0 0 1952.00 734.93"
   xml:space="preserve"
   id="svg2"
   inkscape:version="0.91 r13725"
   sodipodi:docname="pwa.svg"><metadata
     id="metadata16"><rdf:RDF><cc:Work
         rdf:about=""><dc:format>image/svg+xml</dc:format><dc:type
           rdf:resource="http://purl.org/dc/dcmitype/StillImage" /><dc:title></dc:title></cc:Work></rdf:RDF></metadata><defs
     id="defs14" /><sodipodi:namedview
     pagecolor="#ffffff"
     bordercolor="#666666"
     borderopacity="1"
     objecttolerance="10"
     gridtolerance="10"
     guidetolerance="10"
     inkscape:pageopacity="0"
     inkscape:pageshadow="2"
     inkscape:window-width="1920"
     inkscape:window-height="1017"
     id="namedview12"
     showgrid="false"
     inkscape:zoom="8.253443"
     inkscape:cx="-5.6017132"
     inkscape:cy="28.543419"
     inkscape:window-x="-8"
     inkscape:window-y="-8"
     inkscape:window-maximized="1"
     inkscape:current-layer="svg2" /><g
     id="g4"
     transform="matrix(0.02459016,0,0,0.02458994,-3.7208959e-6,14.963826)"><path
       d="m 1436.62,603.304 56.39,-142.599 162.82,0 L 1578.56,244.39 1675.2,5.28336e-4 1952,734.933 l -204.13,0 -47.3,-131.629 -263.95,0 z"
       id="path6"
       inkscape:connector-curvature="0"
       style="fill:#3d3d3d;fill-opacity:1;stroke-width:0.2;stroke-linejoin:round" /><path
       d="M 1262.47,734.935 1558.79,0.00156593 1362.34,0.0025425 1159.64,474.933 1015.5,0.00351906 l -151.001,0 L 709.731,474.933 600.585,258.517 l -98.773,304.302 100.284,172.116 193.331,0 139.857,-425.91 133.346,425.91 193.84,0 z"
       id="path8"
       style="fill:#3d3d3d;fill-opacity:1;stroke-width:0.2;stroke-linejoin:round"
       inkscape:connector-curvature="0" /><path
       d="m 186.476,482.643 121.003,0 c 36.654,0 69.293,-4.091 97.917,-12.273 l 31.293,-96.408 87.459,-269.446 C 517.484,93.9535 509.876,83.9667 501.324,74.5569 456.419,24.852 390.719,4.06265e-4 304.222,4.06265e-4 l -304.2220038147,0 0,734.932593735 186.4760038147,0 0,-252.29 z M 346.642,169.079 c 17.54,17.653 26.309,41.276 26.309,70.871 0,29.822 -7.713,53.474 -23.138,70.956 -16.91,19.425 -48.047,29.137 -93.409,29.137 l -69.928,0 0,-197.445 70.442,0 c 42.277,0 72.185,8.827 89.724,26.481 z"
       id="path10"
       inkscape:connector-curvature="0"
       style="fill:#3d3d3d;fill-opacity:1;stroke-width:0.2;stroke-linejoin:round" /></g></svg>